<svg width="260" height="260" viewBox="0 0 68.792 68.792" xmlns:xlink="http://www.w3.org/1999/xlink" xmlns="http://www.w3.org/2000/svg"><defs><linearGradient id="b"><stop style="stop-color:#843800;stop-opacity:1" offset="0"/><stop style="stop-color:#77704c;stop-opacity:1" offset="1"/></linearGradient><linearGradient id="a"><stop style="stop-color:#ff8000;stop-opacity:1" offset="0"/><stop style="stop-color:#fff6af;stop-opacity:1" offset="1"/></linearGradient><linearGradient xlink:href="#a" id="d" x1="32.086" y1="58.447" x2="32.086" y2="10.345" gradientUnits="userSpaceOnUse"/><linearGradient xlink:href="#b" id="c" gradientUnits="userSpaceOnUse" x1="32.086" y1="58.447" x2="32.086" y2="10.345"/></defs><g style="font-size:68.7917px;white-space:pre;inline-size:38.7121;fill:url(#c);stroke-width:.264583"><path d="M19.316 43.476q0-1.032.482-1.926.069-.206.206-.481l.344-.482q.207-.275.344-.481.207-.207.344-.413l1.1-1.376.414-.413q.275-.275.481-.55.826-.963 1.72-1.789.963-.894 1.857-1.65.757-.689 1.445-1.239l1.513-1.238q-.481-.275-.894-.482-.413-.275-.894-.55l-2.27-1.238-1.651-.826q-.757-.413-1.583-.757-.068-.206.07-.206-.414-.138-.826-.344-.413-.206-.826-.344.069-.137.138-.206l.137-.275q0 .137.07.068.756-1.238 1.237-1.788.482-.55 1.307-1.651.207-.275.344-.482l.276-.55.344-.482q.825-.756 1.375-1.582.62-.894 1.307-1.857l2.89-3.646q.55-.757.894-1.032.413-.275.894-.757-1.444 2.202-3.302 4.54-1.788 2.34-2.958 4.678.963-1.17 1.995-2.545 1.032-1.376 1.995-2.545.963-1.17 1.651-1.926.757-.826 1.1-.826.345-.069-.137.688-.481.757-1.376 1.926-.825 1.1-1.788 2.408-.963 1.238-1.651 2.201l.55-.55q-.481.481-.688.894.482-.413 1.1-1.17.689-.756 1.033-.962l-.344.756q.825-.756 1.857-1.926t1.995-2.339q-.137-.55-.206-.756.069.068.344.619.481-.55.894-.963.413-.482.826-.826-.413.482-.895.963-.413.413-.825.894.137.276.412.895.276.55.413.756.413.413.55.482.413.482.826.826.482.275.894.55l4.265 2.614q.344.275.688.481.344.138.62.482.275.206.343.55.07.207 0 .276l-.412.206-1.239.688h-.068l-.55.344q.274-.275.48-.413l.07-.069q0-.069.068-.137.138-.138.276-.138.137-.138.344-.138.275-.068.481-.137l.138-.069q.068 0 .206-.069l.138-.068h.068v-.07q-.137-.343-.412-.55-.275-.275-.62-.481l-4.402-2.545 1.445.894-1.651-.963-.688-.413q-.344-.206-.688-.481l-.688-.55q-.275-.276-.55-.62l.412.413.482.481q.344.276.619.55.344.207.688.345l.413.275q.068 0 .068.069h.138q-.344-.207-.757-.482-.413-.275-.894-.62-.482-.274-.963-.893-.413-.62-.688-1.101-.138-.344-.206-.55-.07-.276-.207-.482-1.65 1.857-3.233 3.852l-1.238 1.651q-.62.826-1.307 1.72l-1.514 1.995-.137.275q-.07.07 0 .07l2.407 1.1 1.17.619q1.926.894 3.44 1.857l1.65-1.376q.482-.412 1.032-.687.55-.344.826-.344.206 0-.069.412-.206.413-1.376 1.376l-.619.62q-.275.206-.55.48l.344.207q1.582-1.17 3.095-2.339 1.514-1.17 3.096-2.339-2.89 2.34-5.779 4.953.413.276.62.344.963-.756 1.857-1.513.963-.757 1.995-1.376l-.413.413q-.206.206-.413.344l-2.889 2.27q.963.55 1.857 1.1.895.55 1.79 1.17 1.169.757 2.27 1.582 1.1.757 2.132 1.514.275.206.481.412.275.138.688.413.344.275.757.482.413.206.894.481.894.413 1.858.826 1.031.413 1.995.825v.207q.068.068.068.206l-.068.069-1.239 1.376q-.412.481-.894.963l-.963.963q-.275.275-.55.481l-.482.482-2.614 2.27q-1.376 1.238-2.545 2.477-1.17 1.169-1.995 2.407-.138.138-.275.413-.138.206-.344.413l-1.032 1.376q-.963 1.169-1.995 2.2-.963 1.033-1.995 2.065l-.895.894-3.233-3.096-.825-.825q-.413-.413-.826-.757l-1.032-1.1q-1.375-1.376-2.682-2.821-1.308-1.513-2.477-3.164l-.62-.757-.343-.826q-.482-.825-.482-1.65zm2.408 1.101.275.55q.138.138.138.276l.206.206q.207.275.344.55.207.207.413.482l.55.688q.55.756 1.101 1.444.55.62 1.1 1.307-.412-.688-.962-1.375-.55-.688-1.101-1.445l-.55-.757-.413-.413q-.138-.275-.344-.55-.069-.206-.344-.481l-.275-.55q-.138-.276-.275-.482-.07-.207-.07-.55 0-.413.207-.757l.413-.688q.206-.344.481-.62l.55-.55q-.274.344-.55.62-.206.275-.412.619-.138.343-.344.687-.207.344-.207.688.07.344.344.895.275.481.482.825l1.1 1.514q.895 1.375 1.858 2.407.481.62.894 1.239.482.55 1.032 1.169l1.17 1.307q.343.344.687.757l.757.756-1.1-.963q.687.757 1.444 1.583l1.513 1.513 1.514-1.513q.55-.55 1.17-1.239.618-.688 1.031-1.376l.55-.687q.138-.138.276-.344.137-.207.275-.344-.413.412-.62.688l-.55.756-.756.826q-.344.413-.757.825-.344.413-.688.757l-1.376 1.376h-.137l-1.789-1.858.826.826q.481.413.963.894.137 0 .275-.137l1.788-1.858q-.275.207-.894.826l-.825.756q-.138 0-.207.138 0 .069-.137 0l-.963-1.032-1.101-1.1q-.482-.62-1.032-1.17l-.481-.55 1.031 1.032 1.307 1.307 1.239 1.1h.068l.07-.068.894-1.032-.757.756q-.207.207-.275.138l-1.789-1.926q-1.238-1.238-2.408-2.614-1.1-1.376-2.132-2.752l.825 1.1q.482.482.963 1.033l1.927 2.132 1.238 1.376q.688.62 1.376 1.376h.068q.07 0 .07-.069l1.031-1.032q.344-.275.55-.55.276-.344.62-.688l2.201-2.683q1.238-1.445 2.545-2.545.62-.55 1.238-1.101l1.239-1.1.412-.345q-.137.207-.206.276 0 .068.413-.207.206-.137.344-.206l.413-.275.756-.55q.895-.689 1.72-1.377.894-.756 1.651-1.513.413-.344.757-.757l.344-.344v-.068q-.207-.07-.275-.276-.482-.206-.895-.412-.412-.275-.894-.55l-1.582-.964-.413-.275q-.206-.137-.482-.275-.206-.138-.412-.206-.138-.138-.344-.276-.207-.206-.344-.275-.069-.069-.207-.137l-.687-.482.619.482q-.413-.138-.688-.344l1.926 1.444q.206.138.344.275l.413.276q.756.481 1.582.963.825.412 1.72.825l.137.138q.069 0 .138.137h.069l-.276.344q-.206.138-.412.344-.138.207-.344.344l-1.651 1.445-.826.688q-.413.275-.825.619l-1.583 1.17.62-.62-1.032.963q-.963.757-1.858 1.514-.894.688-1.65 1.444.206-.275.412-.481.206-.207.413-.482-1.858 1.651-3.37 3.577-.345.482-.826 1.032-.413.482-.826 1.032-.206.344-.481.62l-.413.412-.688.757q-.138.069-.207.206 0 .069-.068-.069-.688-.619-1.307-1.238l-1.307-1.307-3.44-4.196q-.344-.55-.757-1.032-.412-.55-.756-1.1l-.826-1.101-.344-.62q-.137-.137-.206-.275-.069-.137-.069-.344-.069-.275.069-.412.206-.207.344-.413l.619-.826q-.275.276-.688.826l-.344.344q-.138.206-.138.481.07.344.276.62l.275.55q.206.344.344.619.206.206.412.55.344.55.688 1.032.413.482.826 1.032-.688-.757-1.307-1.513l-1.1-1.651-.414-.55-.137-.276-.138-.413q0-.275.069-.481.138-.207.275-.344.413-.55.55-.826 1.858-2.476 4.197-4.471 2.339-2.064 4.746-4.059-.344.482-.825 1.032-.482.482-.826.963l-.275.275q.07-.068.138-.068.069-.07.137-.207-.412.55-.481.757.069.069.55-.275.482-.344.55-.344.07 0-.206.275-1.1 1.17-2.064 2.132-.963.895-1.72 1.72-.343.482-.687.895l-.55.687q-.276.55-.413.757-.07.207-.07.55.07.07.414-.068.068 0 .068-.07.07-.068.207-.068l.825-.619q.62-.344 1.032-.482.413-.206.069.207-.275.344-.62.757-.274.343-.618.825l-.138.138v.068l-.069.138q-.137.138-.137.275l.137.138.07.137q0 .07.068.138l.344.481q.137.138.344.276.55.756 1.17 1.513.618.688 1.169 1.307l1.513 1.789.138.275q-.138-.55-.482-.894t-.757-.688q-.137-.138-.206-.276 0-.206-.137-.344.275.276.481.55.206.276.482.551l.619.688q.137.275.275.344l.137-.069q0 .138-.137.138l-.069-.069-.069.069q0 .069-.068.137v.207h.068q.07-.069.138-.069v.069q.069 0 .275-.207l1.857-1.926h-.068q-.07 0-.07-.069.482-.55.964-1.031l1.1-1.101q.551-.482 1.033-.894.55-.482 1.1-.895.482-.344.894-.55.413-.275.826-.413.206-.275.825-.756-.412.275-.55.412h-.137q0-.069-.138-.069.413-.275.757-.481l.825-.55.894-.757q.07-.069.138-.069l.138-.137v-.07q.068 0 .068-.068l-.137-.069h-.138q0-.069-.069-.069h-.068q-.138-.137-.275-.137l-.207-.207-1.307-.963-.275-.275q-.069-.137-.206-.275-.276-.138-.482-.275-.206-.138-.344-.207-.757-.55-1.307-1.031l-1.1-1.101q-.138-.069-.413-.138-.207-.068-.482-.206-.344.344-.688.619-.344.206-.688.55.069-.137-.137-.137.756-.688 1.513-1.032l-1.857-1.238q-.55-.344-.963-.62-.413-.275-.964-.619l-.206.207q-.069 0-.206.137.275-.275.412-.344-.068-.068-.137-.068l-.138-.138-.344-.206-.756.688q-1.858 1.582-3.646 3.302-1.72 1.65-3.371 3.44l-.62.756q-.137.275-.343.481-.207.207-.344.482-.413.55-.55.894-.276.55-.276.963 0 .344.138.62.138.206.275.481zm-1.513-1.1q0 .55.275 1.238.344.688.688 1.169l1.444 1.926q.757.963 1.307 2.133.55 1.1 1.995 2.201-1.307-1.65-2.682-3.508l-1.927-2.82-.756-1.514q-.138-.55-.138-.826 0-.412.138-.756.137-.413.344-.826.206-.344.481-.688.275-.413.62-.756l.55-.757 1.238-1.307q.825-.895 1.65-1.72.826-.826 1.72-1.582v.069q.895-.826 1.72-1.514.895-.757 1.72-1.513l-.069-.07-3.37 3.028q.137-.344.825-.895.757-.619 1.1-1.1-1.513 1.17-2.82 2.27-1.238 1.1-2.545 2.545l.413-.413q.206-.275.413-.481l-.757.757q-.207.275-.413.481-.206.207-.413.482-.206.275-.412.481-.207.207-.55.757l-.689.825q-.344.413-.55.895-.55.894-.55 1.788zm21.944-17.199q-1.376.895-2.545 1.72.138-.069.206-.137.07-.07.207-.138 1.857-1.651 4.127-2.958.138-.138.207-.138l.275-.137.688-.482q.275-.069.206-.275-.069-.206-.138-.344-.275-.757-.894-1.376-.55-.55-1.238-.963-.62-.481-1.307-1.032.757.482 1.445.963.756.413 1.307 1.032.344.344.55.688.206.275.344.688.137.275.137.413v.137l-.825.62q-1.513.894-2.752 1.72zM26.883 43.683l-.068-.138q0-.069.137-.206.344-.344.482-.55.481-.55.825-1.032.413-.55.62-.964.55-.343 1.513-1.031-.688.688-1.376 1.307-.62.619-1.238 1.375l-.826.895q0 .069-.069.137v.07q0 .068.07.137l.206.344-.138-.138q0-.069-.069-.137zm14.378-17.68q.688-.481 1.307-.894.62-.413 1.376-.826l.825-.412q0-.07.07-.07l-.07-.068q0-.413-.344-.894-.275-.482-.619-.757-.344-.344-.756-.688.619.482 1.1 1.032.55.482.688 1.307l.069.069-.069.069-.825.481q-.757.413-1.445.826-.62.412-1.307.825zm7.36-3.783q-.343-.757-.756-1.514.55.895.825 1.858.344.894.55 1.857.07 0 .07.138 0-.138-.07-.138 0-.138-.068-.206-.069-.07-.069-.276-.137-.481-.275-.894-.069-.413-.206-.825zm-8.736 9.63q.413-.137.62-.275-.345.276-.689.482-.275.206-.619.481.207-.137.344-.343l.344-.344zm-9.08-20.5q-.344-.275-.62-.48-.206-.276-.481-.551.344.275.55.55.275.206.55.482zm-.276 23.94h.07q.343-.344.687-.619l.688-.688.275-.206-1.65 1.513zm-3.37 15.478-.207-.206.207.206q.206.275.412.482.207.206.413.481zm10.18-.55q-.206.069-.274.275zm2.409-15.685.825.55q-.55-.412-.825-.55zm-12.59-.068-.343.344zm-.137 14.721v.069z" style="font-family:CROOKED;-inkscape-font-specification:CROOKED" aria-label="8" transform="matrix(1.28607 0 0 1.28607 -8.637 -8.478)"/></g><g style="font-size:68.7917px;white-space:pre;inline-size:38.7121;fill:url(#d);stroke-width:.264583"><path d="M19.316 43.476q0-1.032.482-1.926.069-.206.206-.481l.344-.482q.207-.275.344-.481.207-.207.344-.413l1.1-1.376.414-.413q.275-.275.481-.55.826-.963 1.72-1.789.963-.894 1.857-1.65.757-.689 1.445-1.239l1.513-1.238q-.481-.275-.894-.482-.413-.275-.894-.55l-2.27-1.238-1.651-.826q-.757-.413-1.583-.757-.068-.206.07-.206-.414-.138-.826-.344-.413-.206-.826-.344.069-.137.138-.206l.137-.275q0 .137.07.068.756-1.238 1.237-1.788.482-.55 1.307-1.651.207-.275.344-.482l.276-.55.344-.482q.825-.756 1.375-1.582.62-.894 1.307-1.857l2.89-3.646q.55-.757.894-1.032.413-.275.894-.757-1.444 2.202-3.302 4.54-1.788 2.34-2.958 4.678.963-1.17 1.995-2.545 1.032-1.376 1.995-2.545.963-1.17 1.651-1.926.757-.826 1.1-.826.345-.069-.137.688-.481.757-1.376 1.926-.825 1.1-1.788 2.408-.963 1.238-1.651 2.201l.55-.55q-.481.481-.688.894.482-.413 1.1-1.17.689-.756 1.033-.962l-.344.756q.825-.756 1.857-1.926t1.995-2.339q-.137-.55-.206-.756.069.068.344.619.481-.55.894-.963.413-.482.826-.826-.413.482-.895.963-.413.413-.825.894.137.276.412.895.276.55.413.756.413.413.55.482.413.482.826.826.482.275.894.55l4.265 2.614q.344.275.688.481.344.138.62.482.275.206.343.55.07.207 0 .276l-.412.206-1.239.688h-.068l-.55.344q.274-.275.48-.413l.07-.069q0-.069.068-.137.138-.138.276-.138.137-.138.344-.138.275-.068.481-.137l.138-.069q.068 0 .206-.069l.138-.068h.068v-.07q-.137-.343-.412-.55-.275-.275-.62-.481l-4.402-2.545 1.445.894-1.651-.963-.688-.413q-.344-.206-.688-.481l-.688-.55q-.275-.276-.55-.62l.412.413.482.481q.344.276.619.55.344.207.688.345l.413.275q.068 0 .068.069h.138q-.344-.207-.757-.482-.413-.275-.894-.62-.482-.274-.963-.893-.413-.62-.688-1.101-.138-.344-.206-.55-.07-.276-.207-.482-1.65 1.857-3.233 3.852l-1.238 1.651q-.62.826-1.307 1.72l-1.514 1.995-.137.275q-.07.07 0 .07l2.407 1.1 1.17.619q1.926.894 3.44 1.857l1.65-1.376q.482-.412 1.032-.687.55-.344.826-.344.206 0-.069.412-.206.413-1.376 1.376l-.619.62q-.275.206-.55.48l.344.207q1.582-1.17 3.095-2.339 1.514-1.17 3.096-2.339-2.89 2.34-5.779 4.953.413.276.62.344.963-.756 1.857-1.513.963-.757 1.995-1.376l-.413.413q-.206.206-.413.344l-2.889 2.27q.963.55 1.857 1.1.895.55 1.79 1.17 1.169.757 2.27 1.582 1.1.757 2.132 1.514.275.206.481.412.275.138.688.413.344.275.757.482.413.206.894.481.894.413 1.858.826 1.031.413 1.995.825v.207q.068.068.068.206l-.068.069-1.239 1.376q-.412.481-.894.963l-.963.963q-.275.275-.55.481l-.482.482-2.614 2.27q-1.376 1.238-2.545 2.477-1.17 1.169-1.995 2.407-.138.138-.275.413-.138.206-.344.413l-1.032 1.376q-.963 1.169-1.995 2.2-.963 1.033-1.995 2.065l-.895.894-3.233-3.096-.825-.825q-.413-.413-.826-.757l-1.032-1.1q-1.375-1.376-2.682-2.821-1.308-1.513-2.477-3.164l-.62-.757-.343-.826q-.482-.825-.482-1.65zm2.408 1.101.275.55q.138.138.138.276l.206.206q.207.275.344.55.207.207.413.482l.55.688q.55.756 1.101 1.444.55.62 1.1 1.307-.412-.688-.962-1.375-.55-.688-1.101-1.445l-.55-.757-.413-.413q-.138-.275-.344-.55-.069-.206-.344-.481l-.275-.55q-.138-.276-.275-.482-.07-.207-.07-.55 0-.413.207-.757l.413-.688q.206-.344.481-.62l.55-.55q-.274.344-.55.62-.206.275-.412.619-.138.343-.344.687-.207.344-.207.688.07.344.344.895.275.481.482.825l1.1 1.514q.895 1.375 1.858 2.407.481.62.894 1.239.482.55 1.032 1.169l1.17 1.307q.343.344.687.757l.757.756-1.1-.963q.687.757 1.444 1.583l1.513 1.513 1.514-1.513q.55-.55 1.17-1.239.618-.688 1.031-1.376l.55-.687q.138-.138.276-.344.137-.207.275-.344-.413.412-.62.688l-.55.756-.756.826q-.344.413-.757.825-.344.413-.688.757l-1.376 1.376h-.137l-1.789-1.858.826.826q.481.413.963.894.137 0 .275-.137l1.788-1.858q-.275.207-.894.826l-.825.756q-.138 0-.207.138 0 .069-.137 0l-.963-1.032-1.101-1.1q-.482-.62-1.032-1.17l-.481-.55 1.031 1.032 1.307 1.307 1.239 1.1h.068l.07-.068.894-1.032-.757.756q-.207.207-.275.138l-1.789-1.926q-1.238-1.238-2.408-2.614-1.1-1.376-2.132-2.752l.825 1.1q.482.482.963 1.033l1.927 2.132 1.238 1.376q.688.62 1.376 1.376h.068q.07 0 .07-.069l1.031-1.032q.344-.275.55-.55.276-.344.62-.688l2.201-2.683q1.238-1.445 2.545-2.545.62-.55 1.238-1.101l1.239-1.1.412-.345q-.137.207-.206.276 0 .068.413-.207.206-.137.344-.206l.413-.275.756-.55q.895-.689 1.72-1.377.894-.756 1.651-1.513.413-.344.757-.757l.344-.344v-.068q-.207-.07-.275-.276-.482-.206-.895-.412-.412-.275-.894-.55l-1.582-.964-.413-.275q-.206-.137-.482-.275-.206-.138-.412-.206-.138-.138-.344-.276-.207-.206-.344-.275-.069-.069-.207-.137l-.687-.482.619.482q-.413-.138-.688-.344l1.926 1.444q.206.138.344.275l.413.276q.756.481 1.582.963.825.412 1.72.825l.137.138q.069 0 .138.137h.069l-.276.344q-.206.138-.412.344-.138.207-.344.344l-1.651 1.445-.826.688q-.413.275-.825.619l-1.583 1.17.62-.62-1.032.963q-.963.757-1.858 1.514-.894.688-1.65 1.444.206-.275.412-.481.206-.207.413-.482-1.858 1.651-3.37 3.577-.345.482-.826 1.032-.413.482-.826 1.032-.206.344-.481.62l-.413.412-.688.757q-.138.069-.207.206 0 .069-.068-.069-.688-.619-1.307-1.238l-1.307-1.307-3.44-4.196q-.344-.55-.757-1.032-.412-.55-.756-1.1l-.826-1.101-.344-.62q-.137-.137-.206-.275-.069-.137-.069-.344-.069-.275.069-.412.206-.207.344-.413l.619-.826q-.275.276-.688.826l-.344.344q-.138.206-.138.481.07.344.276.62l.275.55q.206.344.344.619.206.206.412.55.344.55.688 1.032.413.482.826 1.032-.688-.757-1.307-1.513l-1.1-1.651-.414-.55-.137-.276-.138-.413q0-.275.069-.481.138-.207.275-.344.413-.55.55-.826 1.858-2.476 4.197-4.471 2.339-2.064 4.746-4.059-.344.482-.825 1.032-.482.482-.826.963l-.275.275q.07-.068.138-.068.069-.07.137-.207-.412.55-.481.757.069.069.55-.275.482-.344.55-.344.07 0-.206.275-1.1 1.17-2.064 2.132-.963.895-1.72 1.72-.343.482-.687.895l-.55.687q-.276.55-.413.757-.07.207-.07.55.07.07.414-.068.068 0 .068-.07.07-.068.207-.068l.825-.619q.62-.344 1.032-.482.413-.206.069.207-.275.344-.62.757-.274.343-.618.825l-.138.138v.068l-.069.138q-.137.138-.137.275l.137.138.07.137q0 .07.068.138l.344.481q.137.138.344.276.55.756 1.17 1.513.618.688 1.169 1.307l1.513 1.789.138.275q-.138-.55-.482-.894t-.757-.688q-.137-.138-.206-.276 0-.206-.137-.344.275.276.481.55.206.276.482.551l.619.688q.137.275.275.344l.137-.069q0 .138-.137.138l-.069-.069-.069.069q0 .069-.068.137v.207h.068q.07-.069.138-.069v.069q.069 0 .275-.207l1.857-1.926h-.068q-.07 0-.07-.069.482-.55.964-1.031l1.1-1.101q.551-.482 1.033-.894.55-.482 1.1-.895.482-.344.894-.55.413-.275.826-.413.206-.275.825-.756-.412.275-.55.412h-.137q0-.069-.138-.069.413-.275.757-.481l.825-.55.894-.757q.07-.069.138-.069l.138-.137v-.07q.068 0 .068-.068l-.137-.069h-.138q0-.069-.069-.069h-.068q-.138-.137-.275-.137l-.207-.207-1.307-.963-.275-.275q-.069-.137-.206-.275-.276-.138-.482-.275-.206-.138-.344-.207-.757-.55-1.307-1.031l-1.1-1.101q-.138-.069-.413-.138-.207-.068-.482-.206-.344.344-.688.619-.344.206-.688.55.069-.137-.137-.137.756-.688 1.513-1.032l-1.857-1.238q-.55-.344-.963-.62-.413-.275-.964-.619l-.206.207q-.069 0-.206.137.275-.275.412-.344-.068-.068-.137-.068l-.138-.138-.344-.206-.756.688q-1.858 1.582-3.646 3.302-1.72 1.65-3.371 3.44l-.62.756q-.137.275-.343.481-.207.207-.344.482-.413.55-.55.894-.276.55-.276.963 0 .344.138.62.138.206.275.481zm-1.513-1.1q0 .55.275 1.238.344.688.688 1.169l1.444 1.926q.757.963 1.307 2.133.55 1.1 1.995 2.201-1.307-1.65-2.682-3.508l-1.927-2.82-.756-1.514q-.138-.55-.138-.826 0-.412.138-.756.137-.413.344-.826.206-.344.481-.688.275-.413.62-.756l.55-.757 1.238-1.307q.825-.895 1.65-1.72.826-.826 1.72-1.582v.069q.895-.826 1.72-1.514.895-.757 1.72-1.513l-.069-.07-3.37 3.028q.137-.344.825-.895.757-.619 1.1-1.1-1.513 1.17-2.82 2.27-1.238 1.1-2.545 2.545l.413-.413q.206-.275.413-.481l-.757.757q-.207.275-.413.481-.206.207-.413.482-.206.275-.412.481-.207.207-.55.757l-.689.825q-.344.413-.55.895-.55.894-.55 1.788zm21.944-17.199q-1.376.895-2.545 1.72.138-.069.206-.137.07-.07.207-.138 1.857-1.651 4.127-2.958.138-.138.207-.138l.275-.137.688-.482q.275-.069.206-.275-.069-.206-.138-.344-.275-.757-.894-1.376-.55-.55-1.238-.963-.62-.481-1.307-1.032.757.482 1.445.963.756.413 1.307 1.032.344.344.55.688.206.275.344.688.137.275.137.413v.137l-.825.62q-1.513.894-2.752 1.72zM26.883 43.683l-.068-.138q0-.069.137-.206.344-.344.482-.55.481-.55.825-1.032.413-.55.62-.964.55-.343 1.513-1.031-.688.688-1.376 1.307-.62.619-1.238 1.375l-.826.895q0 .069-.069.137v.07q0 .068.07.137l.206.344-.138-.138q0-.069-.069-.137zm14.378-17.68q.688-.481 1.307-.894.62-.413 1.376-.826l.825-.412q0-.07.07-.07l-.07-.068q0-.413-.344-.894-.275-.482-.619-.757-.344-.344-.756-.688.619.482 1.1 1.032.55.482.688 1.307l.069.069-.069.069-.825.481q-.757.413-1.445.826-.62.412-1.307.825zm7.36-3.783q-.343-.757-.756-1.514.55.895.825 1.858.344.894.55 1.857.07 0 .07.138 0-.138-.07-.138 0-.138-.068-.206-.069-.07-.069-.276-.137-.481-.275-.894-.069-.413-.206-.825zm-8.736 9.63q.413-.137.62-.275-.345.276-.689.482-.275.206-.619.481.207-.137.344-.343l.344-.344zm-9.08-20.5q-.344-.275-.62-.48-.206-.276-.481-.551.344.275.55.55.275.206.55.482zm-.276 23.94h.07q.343-.344.687-.619l.688-.688.275-.206-1.65 1.513zm-3.37 15.478-.207-.206.207.206q.206.275.412.482.207.206.413.481zm10.18-.55q-.206.069-.274.275zm2.409-15.685.825.55q-.55-.412-.825-.55zm-12.59-.068-.343.344zm-.137 14.721v.069z" style="font-family:CROOKED;-inkscape-font-specification:CROOKED" aria-label="8" transform="matrix(1.28607 0 0 1.28607 -11.36 -11.2)"/></g></svg>