<?xml version="1.0" encoding="UTF-8" standalone="no"?>
<!-- Created with Inkscape (http://www.inkscape.org/) -->

<svg
   width="260"
   height="260"
   viewBox="0 0 68.791668 68.791667"
   version="1.1"
   id="svg5"
   inkscape:version="1.2.2 (732a01da63, 2022-12-09)"
   sodipodi:docname="icon.svg"
   xmlns:inkscape="http://www.inkscape.org/namespaces/inkscape"
   xmlns:sodipodi="http://sodipodi.sourceforge.net/DTD/sodipodi-0.dtd"
   xmlns:xlink="http://www.w3.org/1999/xlink"
   xmlns="http://www.w3.org/2000/svg"
   xmlns:svg="http://www.w3.org/2000/svg">
  <sodipodi:namedview
     id="namedview7"
     pagecolor="#ffffff"
     bordercolor="#000000"
     borderopacity="0.25"
     inkscape:showpageshadow="2"
     inkscape:pageopacity="0"
     inkscape:pagecheckerboard="0"
     inkscape:deskcolor="#d1d1d1"
     inkscape:document-units="mm"
     showgrid="false"
     inkscape:zoom="2.1341967"
     inkscape:cx="115.03157"
     inkscape:cy="137.28819"
     inkscape:window-width="1920"
     inkscape:window-height="1027"
     inkscape:window-x="-8"
     inkscape:window-y="-8"
     inkscape:window-maximized="1"
     inkscape:current-layer="layer1" />
  <defs
     id="defs2">
    <linearGradient
       inkscape:collect="always"
       id="linearGradient4811">
      <stop
         style="stop-color:#843800;stop-opacity:1;"
         offset="0"
         id="stop4807" />
      <stop
         style="stop-color:#77704c;stop-opacity:1;"
         offset="1"
         id="stop4809" />
    </linearGradient>
    <linearGradient
       inkscape:collect="always"
       id="linearGradient2510">
      <stop
         style="stop-color:#ff8000;stop-opacity:1;"
         offset="0"
         id="stop2506" />
      <stop
         style="stop-color:#fff6af;stop-opacity:1;"
         offset="1"
         id="stop2508" />
    </linearGradient>
    <linearGradient
       inkscape:collect="always"
       xlink:href="#linearGradient2510"
       id="linearGradient2512"
       x1="32.086086"
       y1="58.446651"
       x2="32.086086"
       y2="10.345022"
       gradientUnits="userSpaceOnUse" />
    <linearGradient
       inkscape:collect="always"
       xlink:href="#linearGradient4811"
       id="linearGradient4076"
       gradientUnits="userSpaceOnUse"
       x1="32.086086"
       y1="58.446651"
       x2="32.086086"
       y2="10.345022" />
  </defs>
  <g
     inkscape:label="Слой 1"
     inkscape:groupmode="layer"
     id="layer1">
    <g
       id="g6546"
       transform="translate(-1.0583333,-1.0583348)">
      <g
         aria-label="8"
         transform="matrix(1.2860683,0,0,1.2860683,-7.579015,-7.4201352)"
         id="text236-4"
         style="font-size:68.7917px;white-space:pre;inline-size:38.7121;fill:url(#linearGradient4076);stroke-width:0.264583">
        <path
           d="m 19.316406,43.47634 q 0,-1.031876 0.481542,-1.926168 0.06879,-0.206375 0.206375,-0.481542 l 0.343959,-0.481542 q 0.206375,-0.275166 0.343958,-0.481542 0.206375,-0.206375 0.343959,-0.41275 l 1.100667,-1.375834 q 0.206375,-0.206375 0.41275,-0.41275 0.275167,-0.275167 0.481542,-0.550334 0.825501,-0.963084 1.719793,-1.788584 0.963084,-0.894292 1.857376,-1.651001 0.756708,-0.687917 1.444625,-1.23825 0.756709,-0.619126 1.513418,-1.238251 -0.481542,-0.275167 -0.894292,-0.481542 -0.41275,-0.275167 -0.894292,-0.550334 l -2.270127,-1.23825 q -0.8255,-0.41275 -1.651,-0.825501 -0.756709,-0.41275 -1.58221,-0.756708 -0.06879,-0.206376 0.06879,-0.206376 -0.41275,-0.137583 -0.8255,-0.343958 -0.41275,-0.206375 -0.825501,-0.343959 0.06879,-0.137583 0.137584,-0.206375 0.06879,-0.137583 0.137583,-0.275166 0,0.137583 0.06879,0.06879 0.756709,-1.23825 1.23825,-1.788584 0.481542,-0.550334 1.307043,-1.651001 0.206375,-0.275167 0.343958,-0.481542 0.137584,-0.275167 0.275167,-0.550333 l 0.343959,-0.481542 q 0.8255,-0.756709 1.375834,-1.582209 0.619125,-0.894293 1.307042,-1.857376 l 2.889252,-3.645961 q 0.550333,-0.756708 0.894292,-1.031875 0.41275,-0.275167 0.894292,-0.756709 -1.444626,2.201335 -3.302002,4.540252 -1.788584,2.338918 -2.958043,4.677836 0.963084,-1.169459 1.994959,-2.545293 1.031876,-1.375834 1.99496,-2.545293 0.963083,-1.169459 1.651,-1.926167 0.756709,-0.825501 1.100668,-0.825501 0.343958,-0.06879 -0.137584,0.687917 -0.481542,0.756709 -1.375834,1.926168 -0.8255,1.100667 -1.788584,2.407709 -0.963084,1.238251 -1.651001,2.201335 l 0.550334,-0.550334 q -0.481542,0.481542 -0.687917,0.894292 0.481542,-0.41275 1.100667,-1.169459 0.687917,-0.756708 1.031875,-0.963083 l -0.343958,0.756708 q 0.8255,-0.756708 1.857376,-1.926167 1.031875,-1.169459 1.994959,-2.338918 -0.137583,-0.550334 -0.206375,-0.756709 0.06879,0.06879 0.343959,0.619125 0.481542,-0.550333 0.894292,-0.963083 0.41275,-0.481542 0.8255,-0.825501 -0.41275,0.481542 -0.894292,0.963084 -0.41275,0.41275 -0.8255,0.894292 0.137583,0.275167 0.41275,0.894292 0.275167,0.550334 0.41275,0.756709 0.41275,0.41275 0.550334,0.481542 0.41275,0.481542 0.8255,0.8255 0.481542,0.275167 0.894292,0.550334 l 4.265086,2.614085 q 0.343958,0.275166 0.687917,0.481542 0.343958,0.137583 0.619125,0.481541 0.275167,0.206376 0.343959,0.550334 0.06879,0.206375 0,0.275167 l -0.412751,0.206375 -1.23825,0.687917 h -0.06879 l -0.550333,0.343958 q 0.275166,-0.275166 0.481541,-0.41275 0.06879,-0.06879 0.06879,-0.06879 0,-0.06879 0.06879,-0.137584 0.137583,-0.137583 0.275167,-0.137583 0.137583,-0.137584 0.343958,-0.137584 0.275167,-0.06879 0.481542,-0.137583 0.137583,-0.06879 0.137583,-0.06879 0.06879,0 0.206376,-0.06879 l 0.137583,-0.06879 h 0.06879 v 0 -0.06879 q -0.137584,-0.343958 -0.412751,-0.550333 -0.275166,-0.275167 -0.619125,-0.481542 l -4.402669,-2.545293 1.444626,0.894292 -1.651001,-0.963084 q -0.343958,-0.206375 -0.687917,-0.41275 -0.343958,-0.206375 -0.687917,-0.481542 -0.343958,-0.275167 -0.687917,-0.550334 -0.275167,-0.275167 -0.550334,-0.619125 l 0.412751,0.41275 0.481542,0.481542 q 0.343958,0.275167 0.619125,0.550334 0.343958,0.206375 0.687917,0.343958 l 0.41275,0.275167 q 0.06879,0 0.06879,0.06879 0.06879,0 0.137583,0 -0.343958,-0.206375 -0.756709,-0.481542 -0.41275,-0.275167 -0.894292,-0.619126 -0.481542,-0.275166 -0.963083,-0.894292 -0.412751,-0.619125 -0.687917,-1.100667 -0.137584,-0.343958 -0.206376,-0.550334 -0.06879,-0.275166 -0.206375,-0.481541 -1.651001,1.857375 -3.23321,3.852335 -0.619125,0.8255 -1.23825,1.651001 -0.619126,0.8255 -1.307043,1.719792 l -1.513417,1.99496 -0.137584,0.275166 q -0.06879,0.06879 0,0.06879 l 2.40771,1.100667 1.169459,0.619126 q 1.926168,0.894292 3.439585,1.857376 l 1.651001,-1.375834 q 0.481542,-0.412751 1.031875,-0.687917 0.550334,-0.343959 0.825501,-0.343959 0.206375,0 -0.06879,0.41275 -0.206375,0.41275 -1.375834,1.375834 -0.343958,0.343959 -0.619125,0.619126 -0.275167,0.206375 -0.550334,0.481542 l 0.343959,0.206375 q 1.582209,-1.169459 3.095626,-2.338918 1.513418,-1.169459 3.095627,-2.338918 -2.889252,2.338918 -5.778503,4.953002 0.41275,0.275167 0.619125,0.343959 0.963084,-0.756709 1.857376,-1.513417 0.963084,-0.756709 1.99496,-1.375835 -0.206376,0.206376 -0.412751,0.412751 -0.206375,0.206375 -0.41275,0.343958 l -2.889251,2.270126 q 0.963083,0.550334 1.857376,1.100668 0.894292,0.550333 1.788584,1.169459 1.169459,0.756708 2.270126,1.582209 1.100667,0.756708 2.132543,1.513417 0.275167,0.206375 0.481542,0.41275 0.275167,0.137584 0.687917,0.412751 0.343958,0.275166 0.756708,0.481542 0.412751,0.206375 0.894293,0.481541 0.894292,0.412751 1.857376,0.825501 1.031875,0.41275 1.994959,0.8255 0,0.137584 0,0.206375 0.06879,0.06879 0.06879,0.206375 0,0 -0.06879,0.06879 l -1.238251,1.375834 q -0.41275,0.481542 -0.894292,0.963084 -0.41275,0.41275 -0.963084,0.963084 -0.275166,0.275167 -0.550333,0.481542 -0.206375,0.206375 -0.481542,0.481542 l -2.614085,2.270126 q -1.375834,1.238251 -2.545293,2.476501 -1.169459,1.169459 -1.994959,2.40771 -0.137584,0.137583 -0.275167,0.41275 -0.137583,0.206375 -0.343959,0.41275 l -1.031875,1.375834 q -0.963084,1.169459 -1.994959,2.201335 -0.963084,1.031875 -1.99496,2.063751 l -0.894292,0.894292 -3.23321,-3.095627 q -0.41275,-0.41275 -0.8255,-0.8255 -0.412751,-0.41275 -0.825501,-0.756709 L 25.92041,52.694428 q -1.375834,-1.375834 -2.682877,-2.82046 -1.307042,-1.513417 -2.476501,-3.164418 l -0.619125,-0.756709 -0.343959,-0.8255 Q 19.316406,44.30184 19.316406,43.47634 Z m 2.40771,1.100667 0.275167,0.550334 q 0.137583,0.137583 0.137583,0.275166 0.06879,0.06879 0.206375,0.206376 0.206375,0.275166 0.343959,0.550333 0.206375,0.206375 0.41275,0.481542 l 0.550333,0.687917 q 0.550334,0.756709 1.100668,1.444626 0.550333,0.619125 1.100667,1.307042 -0.41275,-0.687917 -0.963084,-1.375834 -0.550333,-0.687917 -1.100667,-1.444626 L 23.237533,46.503175 Q 23.031158,46.2968 22.824783,46.090424 22.6872,45.815258 22.480825,45.540091 22.412033,45.333716 22.136866,45.058549 l -0.275167,-0.550334 q -0.137583,-0.275166 -0.275167,-0.481542 -0.06879,-0.206375 -0.06879,-0.550333 0,-0.41275 0.206375,-0.756709 0.206375,-0.343958 0.41275,-0.687917 0.206375,-0.343958 0.481542,-0.619125 0.275167,-0.275167 0.550334,-0.550334 -0.275167,0.343959 -0.550334,0.619125 -0.206375,0.275167 -0.41275,0.619126 -0.137584,0.343958 -0.343959,0.687917 -0.206375,0.343958 -0.206375,0.687917 0.06879,0.343958 0.343959,0.894292 0.275166,0.481542 0.481542,0.8255 l 1.100667,1.513418 q 0.894292,1.375834 1.857376,2.407709 0.481542,0.619126 0.894292,1.238251 0.481542,0.550334 1.031875,1.169459 l 1.169459,1.307042 q 0.343959,0.343959 0.687917,0.756709 0.412751,0.41275 0.756709,0.756709 l -1.100667,-0.963084 q 0.687917,0.756709 1.444626,1.582209 0.756708,0.756709 1.513417,1.513418 l 1.513418,-1.513418 q 0.550333,-0.550334 1.169458,-1.238251 0.619126,-0.687917 1.031876,-1.375834 l 0.550334,-0.687917 q 0.137583,-0.137583 0.275166,-0.343958 0.137584,-0.206375 0.275167,-0.343959 -0.41275,0.412751 -0.619125,0.687917 l -0.550334,0.756709 -0.756708,0.825501 q -0.343959,0.41275 -0.756709,0.8255 -0.343959,0.41275 -0.687917,0.756709 l -1.375834,1.375834 H 31.767704 L 29.97912,54.345429 q 0.41275,0.41275 0.825501,0.8255 0.481541,0.41275 0.963083,0.894292 0.137584,0 0.275167,-0.137583 l 1.788584,-1.857376 q -0.275166,0.206375 -0.894292,0.8255 l -0.8255,0.756709 q -0.137584,0 -0.206375,0.137584 0,0.06879 -0.137584,0 l -0.963083,-1.031876 q -0.550334,-0.550334 -1.100668,-1.100667 -0.481542,-0.619126 -1.031875,-1.169459 l -0.481542,-0.550334 1.031875,1.031876 q 0.687917,0.687917 1.307043,1.307042 0.619125,0.550334 1.23825,1.100667 h 0.06879 q 0.06879,-0.06879 0.06879,-0.06879 l 0.894292,-1.031876 -0.756709,0.756709 q -0.206375,0.206375 -0.275167,0.137583 L 29.97912,53.244762 q -1.238251,-1.238251 -2.407709,-2.614085 -1.100668,-1.375834 -2.132543,-2.751668 0.41275,0.550333 0.8255,1.100667 0.481542,0.481542 0.963084,1.031876 l 1.926168,2.132542 q 0.619125,0.687917 1.23825,1.375834 0.687917,0.619126 1.375834,1.375834 h 0.06879 q 0.06879,0 0.06879,-0.06879 l 1.031875,-1.031876 q 0.343959,-0.275167 0.550334,-0.550333 0.275167,-0.343959 0.619125,-0.687917 l 2.201335,-2.682877 q 1.23825,-1.444626 2.545293,-2.545293 0.619125,-0.550333 1.23825,-1.100667 0.619126,-0.550334 1.238251,-1.100667 l 0.41275,-0.343959 q -0.137583,0.206375 -0.206375,0.275167 0,0.06879 0.41275,-0.206375 0.206375,-0.137584 0.343959,-0.206375 0.206375,-0.137584 0.41275,-0.275167 l 0.756709,-0.550334 q 0.894292,-0.687917 1.719792,-1.375834 0.894292,-0.756708 1.651001,-1.513417 0.41275,-0.343959 0.756709,-0.756709 l 0.343958,-0.343958 v -0.06879 q -0.206375,-0.06879 -0.275166,-0.275167 -0.481542,-0.206375 -0.894293,-0.41275 -0.41275,-0.275167 -0.894292,-0.550334 l -1.582209,-0.963084 q -0.206375,-0.137583 -0.41275,-0.275166 -0.206375,-0.137584 -0.481542,-0.275167 -0.206375,-0.137584 -0.41275,-0.206375 -0.137584,-0.137584 -0.343959,-0.275167 -0.206375,-0.206375 -0.343958,-0.275167 -0.06879,-0.06879 -0.206375,-0.137583 l -0.687917,-0.481542 0.619125,0.481542 q -0.41275,-0.137584 -0.687917,-0.343959 l 1.926168,1.444626 q 0.206375,0.137583 0.343958,0.275167 0.206375,0.137583 0.41275,0.275167 0.756709,0.481541 1.58221,0.963083 0.8255,0.412751 1.719792,0.825501 0.06879,0.06879 0.137583,0.137583 0.06879,0 0.137584,0.137584 h 0.06879 l -0.275167,0.343958 q -0.206375,0.137584 -0.41275,0.343959 -0.137584,0.206375 -0.343959,0.343958 l -1.651001,1.444626 q -0.41275,0.343958 -0.8255,0.687917 -0.41275,0.275167 -0.825501,0.619125 l -1.582209,1.169459 0.619126,-0.619125 -1.031876,0.963084 q -0.963084,0.756708 -1.857376,1.513417 -0.894292,0.687917 -1.651001,1.444626 0.206375,-0.275167 0.41275,-0.481542 0.206375,-0.206375 0.412751,-0.481542 -1.857376,1.651001 -3.370794,3.577169 -0.343958,0.481541 -0.8255,1.031875 -0.41275,0.481542 -0.825501,1.031876 -0.206375,0.343958 -0.481542,0.619125 -0.206375,0.206375 -0.41275,0.41275 l -0.687917,0.756709 q -0.137583,0.06879 -0.206375,0.206375 0,0.06879 -0.06879,-0.06879 -0.687917,-0.619125 -1.307042,-1.23825 -0.619125,-0.619126 -1.307042,-1.307043 L 25.714035,47.9478 q -0.343959,-0.550333 -0.756709,-1.031875 -0.41275,-0.550334 -0.756709,-1.100667 l -0.8255,-1.100668 -0.343959,-0.619125 q -0.137583,-0.137583 -0.206375,-0.275167 -0.06879,-0.137583 -0.06879,-0.343958 -0.06879,-0.275167 0.06879,-0.41275 0.206375,-0.206376 0.343959,-0.412751 l 0.619125,-0.8255 q -0.275167,0.275167 -0.687917,0.8255 -0.137584,0.137584 -0.343959,0.343959 -0.137583,0.206375 -0.137583,0.481542 0.06879,0.343958 0.275167,0.619125 l 0.275167,0.550334 q 0.206375,0.343958 0.343958,0.619125 0.206375,0.206375 0.41275,0.550334 0.343959,0.550333 0.687917,1.031875 0.412751,0.481542 0.825501,1.031876 -0.687917,-0.756709 -1.307043,-1.513418 -0.550333,-0.8255 -1.100667,-1.651001 l -0.41275,-0.550333 q -0.06879,-0.137584 -0.137583,-0.275167 -0.06879,-0.206375 -0.137584,-0.41275 0,-0.275167 0.06879,-0.481542 0.137583,-0.206375 0.275167,-0.343959 0.41275,-0.550333 0.550333,-0.8255 1.857376,-2.476501 4.196294,-4.471461 2.338918,-2.063751 4.746628,-4.05871 -0.343959,0.481542 -0.825501,1.031875 -0.481542,0.481542 -0.8255,0.963084 l -0.275167,0.275167 q 0.06879,-0.06879 0.137583,-0.06879 0.06879,-0.06879 0.137584,-0.206375 -0.41275,0.550334 -0.481542,0.756709 0.06879,0.06879 0.550333,-0.275167 0.481542,-0.343958 0.550334,-0.343958 0.06879,0 -0.206375,0.275166 -1.100667,1.169459 -2.063751,2.132543 -0.963084,0.894292 -1.719793,1.719793 -0.343958,0.481542 -0.687917,0.894292 -0.275167,0.343958 -0.550333,0.687917 -0.275167,0.550334 -0.412751,0.756709 -0.06879,0.206375 -0.06879,0.550333 0.06879,0.06879 0.41275,-0.06879 0.06879,0 0.06879,-0.06879 0.06879,-0.06879 0.206375,-0.06879 l 0.8255,-0.619125 q 0.619126,-0.343959 1.031876,-0.481542 0.41275,-0.206375 0.06879,0.206375 -0.275166,0.343959 -0.619125,0.756709 -0.275167,0.343958 -0.619125,0.8255 l -0.137584,0.137584 v 0.06879 l -0.06879,0.137584 q -0.137584,0.137583 -0.137584,0.275167 l 0.137584,0.137583 q 0.06879,0.137583 0.06879,0.137583 0,0.06879 0.06879,0.137584 l 0.343959,0.481542 q 0.137583,0.137583 0.343958,0.275166 0.550334,0.756709 1.169459,1.513418 0.619125,0.687917 1.169459,1.307042 l 1.513417,1.788585 0.137584,0.275166 q -0.137584,-0.550333 -0.481542,-0.894292 -0.343959,-0.343958 -0.756709,-0.687917 -0.137583,-0.137583 -0.206375,-0.275167 0,-0.206375 -0.137583,-0.343958 0.275167,0.275167 0.481542,0.550333 0.206375,0.275167 0.481542,0.550334 l 0.619125,0.687917 q 0.137583,0.275167 0.275167,0.343959 0.137583,-0.06879 0.137583,-0.06879 0,0.137583 -0.137583,0.137583 l -0.06879,-0.06879 -0.06879,0.06879 q 0,0.06879 -0.06879,0.137584 v 0.206375 q 0.06879,0 0.06879,0 0.06879,-0.06879 0.137584,-0.06879 v 0.06879 q 0.06879,0 0.275166,-0.206375 l 1.857376,-1.926168 q -0.06879,0 -0.06879,0 -0.06879,0 -0.06879,-0.06879 0.481542,-0.550333 0.963084,-1.031875 0.550333,-0.550334 1.100667,-1.100667 0.550334,-0.481542 1.031876,-0.894293 0.550333,-0.481541 1.100667,-0.894292 0.481542,-0.343958 0.894292,-0.550333 0.41275,-0.275167 0.8255,-0.412751 0.206376,-0.275166 0.825501,-0.756708 -0.41275,0.275167 -0.550334,0.41275 -0.06879,0 -0.137583,0 0,-0.06879 -0.137584,-0.06879 0.412751,-0.275167 0.756709,-0.481542 0.41275,-0.275166 0.825501,-0.550333 L 42.08646,40.65588 q 0.06879,-0.06879 0.137583,-0.06879 0.06879,-0.06879 0.137584,-0.137583 0,-0.06879 0,-0.06879 0.06879,0 0.06879,-0.06879 l -0.137583,-0.06879 q -0.06879,0 -0.137584,0 0,-0.06879 -0.06879,-0.06879 h -0.06879 q -0.137583,-0.137583 -0.275167,-0.137583 -0.06879,-0.06879 -0.206375,-0.206375 L 40.229084,38.867296 Q 40.0915,38.729712 39.953917,38.592129 39.885125,38.454546 39.747542,38.316962 39.472375,38.179379 39.266,38.041795 39.059625,37.904212 38.922041,37.83542 q -0.756708,-0.550333 -1.307042,-1.031875 -0.550334,-0.550334 -1.100667,-1.100668 -0.137584,-0.06879 -0.41275,-0.137583 -0.206376,-0.06879 -0.481542,-0.206375 -0.343959,0.343958 -0.687917,0.619125 -0.343959,0.206375 -0.687917,0.550334 0.06879,-0.137584 -0.137584,-0.137584 0.756709,-0.687917 1.513418,-1.031875 L 33.762664,34.120668 Q 33.21233,33.77671 32.79958,33.501543 q -0.41275,-0.275167 -0.963084,-0.619125 -0.137583,0.137583 -0.206375,0.206375 -0.06879,0 -0.206375,0.137583 0.275167,-0.275167 0.41275,-0.343958 -0.06879,-0.06879 -0.137583,-0.06879 -0.06879,-0.06879 -0.137584,-0.137583 l -0.343958,-0.206376 -0.756709,0.687917 q -1.857376,1.58221 -3.64596,3.302002 -1.719793,1.651001 -3.370794,3.439585 l -0.619125,0.756709 q -0.137583,0.275167 -0.343958,0.481542 -0.206376,0.206375 -0.343959,0.481542 -0.41275,0.550333 -0.550334,0.894292 -0.275166,0.550334 -0.275166,0.963084 0,0.343958 0.137583,0.619125 0.137583,0.206375 0.275167,0.481542 z M 20.210698,43.47634 q 0,0.550333 0.275167,1.23825 0.343959,0.687917 0.687917,1.169459 l 1.444626,1.926168 q 0.756709,0.963084 1.307042,2.132543 0.550334,1.100667 1.99496,2.201334 -1.307043,-1.651001 -2.682877,-3.508377 L 21.311366,45.815258 20.554657,44.30184 q -0.137584,-0.550333 -0.137584,-0.8255 0,-0.41275 0.137584,-0.756709 0.137583,-0.41275 0.343958,-0.8255 0.206376,-0.343959 0.481542,-0.687917 0.275167,-0.412751 0.619126,-0.756709 l 0.550333,-0.756709 1.238251,-1.307042 q 0.8255,-0.894292 1.651001,-1.719793 0.8255,-0.8255 1.719792,-1.582209 v 0.06879 q 0.894292,-0.825501 1.719793,-1.513418 0.894292,-0.756708 1.719792,-1.513417 l -0.06879,-0.06879 -3.370794,3.026835 q 0.137584,-0.343958 0.825501,-0.894292 0.756708,-0.619125 1.100667,-1.100667 -1.513417,1.169459 -2.82046,2.270126 -1.23825,1.100667 -2.545293,2.545293 0.206375,-0.206375 0.41275,-0.41275 0.206376,-0.275167 0.412751,-0.481542 l -0.756709,0.756709 q -0.206375,0.275166 -0.41275,0.481541 -0.206375,0.206376 -0.412751,0.481542 -0.206375,0.275167 -0.41275,0.481542 -0.206375,0.206375 -0.550333,0.756709 -0.343959,0.41275 -0.687917,0.8255 -0.343959,0.412751 -0.550334,0.894293 -0.550334,0.894292 -0.550334,1.788584 z M 42.155251,26.278414 q -1.375834,0.894292 -2.545293,1.719793 0.137584,-0.06879 0.206376,-0.137584 0.06879,-0.06879 0.206375,-0.137583 1.857376,-1.651001 4.127502,-2.958043 0.137583,-0.137584 0.206375,-0.137584 0.137583,-0.06879 0.275167,-0.137583 l 0.687917,-0.481542 q 0.275167,-0.06879 0.206375,-0.275167 -0.06879,-0.206375 -0.137584,-0.343958 -0.275166,-0.756709 -0.894292,-1.375834 -0.550333,-0.550334 -1.23825,-0.963084 -0.619126,-0.481542 -1.307043,-1.031876 0.756709,0.481542 1.444626,0.963084 0.756709,0.41275 1.307042,1.031876 0.343959,0.343958 0.550334,0.687917 0.206375,0.275167 0.343959,0.687917 0.137583,0.275167 0.137583,0.41275 v 0.137583 l -0.825501,0.619126 q -1.513417,0.894292 -2.751668,1.719792 z M 26.883493,43.682715 q -0.06879,-0.137583 -0.06879,-0.137583 0,-0.06879 0.137583,-0.206376 0.343959,-0.343958 0.481542,-0.550333 0.481542,-0.550334 0.825501,-1.031876 0.41275,-0.550333 0.619125,-0.963084 0.550333,-0.343958 1.513417,-1.031875 -0.687917,0.687917 -1.375834,1.307042 -0.619125,0.619126 -1.23825,1.375834 l -0.825501,0.894292 q 0,0.06879 -0.06879,0.137584 0,0 0,0.06879 0,0.06879 0.06879,0.137583 l 0.206375,0.343958 q -0.06879,-0.06879 -0.137583,-0.137583 0,-0.06879 -0.06879,-0.137583 z M 41.260959,26.003247 q 0.687917,-0.481541 1.307043,-0.894292 0.619125,-0.41275 1.375834,-0.8255 l 0.8255,-0.41275 q 0,-0.06879 0.06879,-0.06879 l -0.06879,-0.06879 q 0,-0.41275 -0.343958,-0.894292 -0.275167,-0.481542 -0.619126,-0.756709 -0.343958,-0.343958 -0.756708,-0.687917 0.619125,0.481542 1.100667,1.031876 0.550333,0.481542 0.687917,1.307042 l 0.06879,0.06879 q -0.06879,0.06879 -0.06879,0.06879 l -0.825501,0.481542 q -0.756708,0.41275 -1.444625,0.8255 -0.619126,0.41275 -1.307043,0.8255 z m 7.360712,-3.783543 q -0.343958,-0.756709 -0.756708,-1.513418 0.550333,0.894292 0.8255,1.857376 0.343959,0.894292 0.550334,1.857376 0.06879,0 0.06879,0.137584 0,-0.137584 -0.06879,-0.137584 0,-0.137583 -0.06879,-0.206375 -0.06879,-0.06879 -0.06879,-0.275167 -0.137583,-0.481542 -0.275166,-0.894292 -0.06879,-0.41275 -0.206376,-0.8255 z m -8.736546,9.630838 q 0.41275,-0.137583 0.619126,-0.275167 -0.343959,0.275167 -0.687917,0.481542 -0.275167,0.206375 -0.619126,0.481542 0.206375,-0.137583 0.343959,-0.343958 0.206375,-0.206375 0.343958,-0.343959 z M 30.804621,11.350615 q -0.343959,-0.275167 -0.619126,-0.481542 -0.206375,-0.275167 -0.481542,-0.550334 0.343959,0.275167 0.550334,0.550334 0.275167,0.206375 0.550334,0.481542 z m -0.275167,23.939512 h 0.06879 q 0.343959,-0.343958 0.687917,-0.619125 0.343959,-0.343959 0.687917,-0.687917 l 0.275167,-0.206375 -1.651001,1.513417 z M 27.15866,50.76826 26.952285,50.561885 27.15866,50.76826 q 0.206375,0.275167 0.412751,0.481542 0.206375,0.206375 0.41275,0.481542 z m 10.181172,-0.550333 q -0.206375,0.06879 -0.275167,0.275166 z m 2.40771,-15.684508 0.8255,0.550333 q -0.550333,-0.41275 -0.8255,-0.550333 z m -12.588882,-0.06879 -0.343958,0.343958 z m -0.137583,14.721424 v 0.06879 z"
           style="font-family:CROOKED;-inkscape-font-specification:CROOKED"
           id="path302" />
      </g>
      <g
         aria-label="8"
         transform="matrix(1.2860683,0,0,1.2860683,-10.301193,-10.142315)"
         id="text236"
         style="font-size:68.7917px;white-space:pre;inline-size:38.7121;fill:url(#linearGradient2512);stroke-width:0.264583">
        <path
           d="m 19.316406,43.47634 q 0,-1.031876 0.481542,-1.926168 0.06879,-0.206375 0.206375,-0.481542 l 0.343959,-0.481542 q 0.206375,-0.275166 0.343958,-0.481542 0.206375,-0.206375 0.343959,-0.41275 l 1.100667,-1.375834 q 0.206375,-0.206375 0.41275,-0.41275 0.275167,-0.275167 0.481542,-0.550334 0.825501,-0.963084 1.719793,-1.788584 0.963084,-0.894292 1.857376,-1.651001 0.756708,-0.687917 1.444625,-1.23825 0.756709,-0.619126 1.513418,-1.238251 -0.481542,-0.275167 -0.894292,-0.481542 -0.41275,-0.275167 -0.894292,-0.550334 l -2.270127,-1.23825 q -0.8255,-0.41275 -1.651,-0.825501 -0.756709,-0.41275 -1.58221,-0.756708 -0.06879,-0.206376 0.06879,-0.206376 -0.41275,-0.137583 -0.8255,-0.343958 -0.41275,-0.206375 -0.825501,-0.343959 0.06879,-0.137583 0.137584,-0.206375 0.06879,-0.137583 0.137583,-0.275166 0,0.137583 0.06879,0.06879 0.756709,-1.23825 1.23825,-1.788584 0.481542,-0.550334 1.307043,-1.651001 0.206375,-0.275167 0.343958,-0.481542 0.137584,-0.275167 0.275167,-0.550333 l 0.343959,-0.481542 q 0.8255,-0.756709 1.375834,-1.582209 0.619125,-0.894293 1.307042,-1.857376 l 2.889252,-3.645961 q 0.550333,-0.756708 0.894292,-1.031875 0.41275,-0.275167 0.894292,-0.756709 -1.444626,2.201335 -3.302002,4.540252 -1.788584,2.338918 -2.958043,4.677836 0.963084,-1.169459 1.994959,-2.545293 1.031876,-1.375834 1.99496,-2.545293 0.963083,-1.169459 1.651,-1.926167 0.756709,-0.825501 1.100668,-0.825501 0.343958,-0.06879 -0.137584,0.687917 -0.481542,0.756709 -1.375834,1.926168 -0.8255,1.100667 -1.788584,2.407709 -0.963084,1.238251 -1.651001,2.201335 l 0.550334,-0.550334 q -0.481542,0.481542 -0.687917,0.894292 0.481542,-0.41275 1.100667,-1.169459 0.687917,-0.756708 1.031875,-0.963083 l -0.343958,0.756708 q 0.8255,-0.756708 1.857376,-1.926167 1.031875,-1.169459 1.994959,-2.338918 -0.137583,-0.550334 -0.206375,-0.756709 0.06879,0.06879 0.343959,0.619125 0.481542,-0.550333 0.894292,-0.963083 0.41275,-0.481542 0.8255,-0.825501 -0.41275,0.481542 -0.894292,0.963084 -0.41275,0.41275 -0.8255,0.894292 0.137583,0.275167 0.41275,0.894292 0.275167,0.550334 0.41275,0.756709 0.41275,0.41275 0.550334,0.481542 0.41275,0.481542 0.8255,0.8255 0.481542,0.275167 0.894292,0.550334 l 4.265086,2.614085 q 0.343958,0.275166 0.687917,0.481542 0.343958,0.137583 0.619125,0.481541 0.275167,0.206376 0.343959,0.550334 0.06879,0.206375 0,0.275167 l -0.412751,0.206375 -1.23825,0.687917 h -0.06879 l -0.550333,0.343958 q 0.275166,-0.275166 0.481541,-0.41275 0.06879,-0.06879 0.06879,-0.06879 0,-0.06879 0.06879,-0.137584 0.137583,-0.137583 0.275167,-0.137583 0.137583,-0.137584 0.343958,-0.137584 0.275167,-0.06879 0.481542,-0.137583 0.137583,-0.06879 0.137583,-0.06879 0.06879,0 0.206376,-0.06879 l 0.137583,-0.06879 h 0.06879 v 0 -0.06879 q -0.137584,-0.343958 -0.412751,-0.550333 -0.275166,-0.275167 -0.619125,-0.481542 l -4.402669,-2.545293 1.444626,0.894292 -1.651001,-0.963084 q -0.343958,-0.206375 -0.687917,-0.41275 -0.343958,-0.206375 -0.687917,-0.481542 -0.343958,-0.275167 -0.687917,-0.550334 -0.275167,-0.275167 -0.550334,-0.619125 l 0.412751,0.41275 0.481542,0.481542 q 0.343958,0.275167 0.619125,0.550334 0.343958,0.206375 0.687917,0.343958 l 0.41275,0.275167 q 0.06879,0 0.06879,0.06879 0.06879,0 0.137583,0 -0.343958,-0.206375 -0.756709,-0.481542 -0.41275,-0.275167 -0.894292,-0.619126 -0.481542,-0.275166 -0.963083,-0.894292 -0.412751,-0.619125 -0.687917,-1.100667 -0.137584,-0.343958 -0.206376,-0.550334 -0.06879,-0.275166 -0.206375,-0.481541 -1.651001,1.857375 -3.23321,3.852335 -0.619125,0.8255 -1.23825,1.651001 -0.619126,0.8255 -1.307043,1.719792 l -1.513417,1.99496 -0.137584,0.275166 q -0.06879,0.06879 0,0.06879 l 2.40771,1.100667 1.169459,0.619126 q 1.926168,0.894292 3.439585,1.857376 l 1.651001,-1.375834 q 0.481542,-0.412751 1.031875,-0.687917 0.550334,-0.343959 0.825501,-0.343959 0.206375,0 -0.06879,0.41275 -0.206375,0.41275 -1.375834,1.375834 -0.343958,0.343959 -0.619125,0.619126 -0.275167,0.206375 -0.550334,0.481542 l 0.343959,0.206375 q 1.582209,-1.169459 3.095626,-2.338918 1.513418,-1.169459 3.095627,-2.338918 -2.889252,2.338918 -5.778503,4.953002 0.41275,0.275167 0.619125,0.343959 0.963084,-0.756709 1.857376,-1.513417 0.963084,-0.756709 1.99496,-1.375835 -0.206376,0.206376 -0.412751,0.412751 -0.206375,0.206375 -0.41275,0.343958 l -2.889251,2.270126 q 0.963083,0.550334 1.857376,1.100668 0.894292,0.550333 1.788584,1.169459 1.169459,0.756708 2.270126,1.582209 1.100667,0.756708 2.132543,1.513417 0.275167,0.206375 0.481542,0.41275 0.275167,0.137584 0.687917,0.412751 0.343958,0.275166 0.756708,0.481542 0.412751,0.206375 0.894293,0.481541 0.894292,0.412751 1.857376,0.825501 1.031875,0.41275 1.994959,0.8255 0,0.137584 0,0.206375 0.06879,0.06879 0.06879,0.206375 0,0 -0.06879,0.06879 l -1.238251,1.375834 q -0.41275,0.481542 -0.894292,0.963084 -0.41275,0.41275 -0.963084,0.963084 -0.275166,0.275167 -0.550333,0.481542 -0.206375,0.206375 -0.481542,0.481542 l -2.614085,2.270126 q -1.375834,1.238251 -2.545293,2.476501 -1.169459,1.169459 -1.994959,2.40771 -0.137584,0.137583 -0.275167,0.41275 -0.137583,0.206375 -0.343959,0.41275 l -1.031875,1.375834 q -0.963084,1.169459 -1.994959,2.201335 -0.963084,1.031875 -1.99496,2.063751 l -0.894292,0.894292 -3.23321,-3.095627 q -0.41275,-0.41275 -0.8255,-0.8255 -0.412751,-0.41275 -0.825501,-0.756709 L 25.92041,52.694428 q -1.375834,-1.375834 -2.682877,-2.82046 -1.307042,-1.513417 -2.476501,-3.164418 l -0.619125,-0.756709 -0.343959,-0.8255 Q 19.316406,44.30184 19.316406,43.47634 Z m 2.40771,1.100667 0.275167,0.550334 q 0.137583,0.137583 0.137583,0.275166 0.06879,0.06879 0.206375,0.206376 0.206375,0.275166 0.343959,0.550333 0.206375,0.206375 0.41275,0.481542 l 0.550333,0.687917 q 0.550334,0.756709 1.100668,1.444626 0.550333,0.619125 1.100667,1.307042 -0.41275,-0.687917 -0.963084,-1.375834 -0.550333,-0.687917 -1.100667,-1.444626 L 23.237533,46.503175 Q 23.031158,46.2968 22.824783,46.090424 22.6872,45.815258 22.480825,45.540091 22.412033,45.333716 22.136866,45.058549 l -0.275167,-0.550334 q -0.137583,-0.275166 -0.275167,-0.481542 -0.06879,-0.206375 -0.06879,-0.550333 0,-0.41275 0.206375,-0.756709 0.206375,-0.343958 0.41275,-0.687917 0.206375,-0.343958 0.481542,-0.619125 0.275167,-0.275167 0.550334,-0.550334 -0.275167,0.343959 -0.550334,0.619125 -0.206375,0.275167 -0.41275,0.619126 -0.137584,0.343958 -0.343959,0.687917 -0.206375,0.343958 -0.206375,0.687917 0.06879,0.343958 0.343959,0.894292 0.275166,0.481542 0.481542,0.8255 l 1.100667,1.513418 q 0.894292,1.375834 1.857376,2.407709 0.481542,0.619126 0.894292,1.238251 0.481542,0.550334 1.031875,1.169459 l 1.169459,1.307042 q 0.343959,0.343959 0.687917,0.756709 0.412751,0.41275 0.756709,0.756709 l -1.100667,-0.963084 q 0.687917,0.756709 1.444626,1.582209 0.756708,0.756709 1.513417,1.513418 l 1.513418,-1.513418 q 0.550333,-0.550334 1.169458,-1.238251 0.619126,-0.687917 1.031876,-1.375834 l 0.550334,-0.687917 q 0.137583,-0.137583 0.275166,-0.343958 0.137584,-0.206375 0.275167,-0.343959 -0.41275,0.412751 -0.619125,0.687917 l -0.550334,0.756709 -0.756708,0.825501 q -0.343959,0.41275 -0.756709,0.8255 -0.343959,0.41275 -0.687917,0.756709 l -1.375834,1.375834 H 31.767704 L 29.97912,54.345429 q 0.41275,0.41275 0.825501,0.8255 0.481541,0.41275 0.963083,0.894292 0.137584,0 0.275167,-0.137583 l 1.788584,-1.857376 q -0.275166,0.206375 -0.894292,0.8255 l -0.8255,0.756709 q -0.137584,0 -0.206375,0.137584 0,0.06879 -0.137584,0 l -0.963083,-1.031876 q -0.550334,-0.550334 -1.100668,-1.100667 -0.481542,-0.619126 -1.031875,-1.169459 l -0.481542,-0.550334 1.031875,1.031876 q 0.687917,0.687917 1.307043,1.307042 0.619125,0.550334 1.23825,1.100667 h 0.06879 q 0.06879,-0.06879 0.06879,-0.06879 l 0.894292,-1.031876 -0.756709,0.756709 q -0.206375,0.206375 -0.275167,0.137583 L 29.97912,53.244762 q -1.238251,-1.238251 -2.407709,-2.614085 -1.100668,-1.375834 -2.132543,-2.751668 0.41275,0.550333 0.8255,1.100667 0.481542,0.481542 0.963084,1.031876 l 1.926168,2.132542 q 0.619125,0.687917 1.23825,1.375834 0.687917,0.619126 1.375834,1.375834 h 0.06879 q 0.06879,0 0.06879,-0.06879 l 1.031875,-1.031876 q 0.343959,-0.275167 0.550334,-0.550333 0.275167,-0.343959 0.619125,-0.687917 l 2.201335,-2.682877 q 1.23825,-1.444626 2.545293,-2.545293 0.619125,-0.550333 1.23825,-1.100667 0.619126,-0.550334 1.238251,-1.100667 l 0.41275,-0.343959 q -0.137583,0.206375 -0.206375,0.275167 0,0.06879 0.41275,-0.206375 0.206375,-0.137584 0.343959,-0.206375 0.206375,-0.137584 0.41275,-0.275167 l 0.756709,-0.550334 q 0.894292,-0.687917 1.719792,-1.375834 0.894292,-0.756708 1.651001,-1.513417 0.41275,-0.343959 0.756709,-0.756709 l 0.343958,-0.343958 v -0.06879 q -0.206375,-0.06879 -0.275166,-0.275167 -0.481542,-0.206375 -0.894293,-0.41275 -0.41275,-0.275167 -0.894292,-0.550334 l -1.582209,-0.963084 q -0.206375,-0.137583 -0.41275,-0.275166 -0.206375,-0.137584 -0.481542,-0.275167 -0.206375,-0.137584 -0.41275,-0.206375 -0.137584,-0.137584 -0.343959,-0.275167 -0.206375,-0.206375 -0.343958,-0.275167 -0.06879,-0.06879 -0.206375,-0.137583 l -0.687917,-0.481542 0.619125,0.481542 q -0.41275,-0.137584 -0.687917,-0.343959 l 1.926168,1.444626 q 0.206375,0.137583 0.343958,0.275167 0.206375,0.137583 0.41275,0.275167 0.756709,0.481541 1.58221,0.963083 0.8255,0.412751 1.719792,0.825501 0.06879,0.06879 0.137583,0.137583 0.06879,0 0.137584,0.137584 h 0.06879 l -0.275167,0.343958 q -0.206375,0.137584 -0.41275,0.343959 -0.137584,0.206375 -0.343959,0.343958 l -1.651001,1.444626 q -0.41275,0.343958 -0.8255,0.687917 -0.41275,0.275167 -0.825501,0.619125 l -1.582209,1.169459 0.619126,-0.619125 -1.031876,0.963084 q -0.963084,0.756708 -1.857376,1.513417 -0.894292,0.687917 -1.651001,1.444626 0.206375,-0.275167 0.41275,-0.481542 0.206375,-0.206375 0.412751,-0.481542 -1.857376,1.651001 -3.370794,3.577169 -0.343958,0.481541 -0.8255,1.031875 -0.41275,0.481542 -0.825501,1.031876 -0.206375,0.343958 -0.481542,0.619125 -0.206375,0.206375 -0.41275,0.41275 l -0.687917,0.756709 q -0.137583,0.06879 -0.206375,0.206375 0,0.06879 -0.06879,-0.06879 -0.687917,-0.619125 -1.307042,-1.23825 -0.619125,-0.619126 -1.307042,-1.307043 L 25.714035,47.9478 q -0.343959,-0.550333 -0.756709,-1.031875 -0.41275,-0.550334 -0.756709,-1.100667 l -0.8255,-1.100668 -0.343959,-0.619125 q -0.137583,-0.137583 -0.206375,-0.275167 -0.06879,-0.137583 -0.06879,-0.343958 -0.06879,-0.275167 0.06879,-0.41275 0.206375,-0.206376 0.343959,-0.412751 l 0.619125,-0.8255 q -0.275167,0.275167 -0.687917,0.8255 -0.137584,0.137584 -0.343959,0.343959 -0.137583,0.206375 -0.137583,0.481542 0.06879,0.343958 0.275167,0.619125 l 0.275167,0.550334 q 0.206375,0.343958 0.343958,0.619125 0.206375,0.206375 0.41275,0.550334 0.343959,0.550333 0.687917,1.031875 0.412751,0.481542 0.825501,1.031876 -0.687917,-0.756709 -1.307043,-1.513418 -0.550333,-0.8255 -1.100667,-1.651001 l -0.41275,-0.550333 q -0.06879,-0.137584 -0.137583,-0.275167 -0.06879,-0.206375 -0.137584,-0.41275 0,-0.275167 0.06879,-0.481542 0.137583,-0.206375 0.275167,-0.343959 0.41275,-0.550333 0.550333,-0.8255 1.857376,-2.476501 4.196294,-4.471461 2.338918,-2.063751 4.746628,-4.05871 -0.343959,0.481542 -0.825501,1.031875 -0.481542,0.481542 -0.8255,0.963084 l -0.275167,0.275167 q 0.06879,-0.06879 0.137583,-0.06879 0.06879,-0.06879 0.137584,-0.206375 -0.41275,0.550334 -0.481542,0.756709 0.06879,0.06879 0.550333,-0.275167 0.481542,-0.343958 0.550334,-0.343958 0.06879,0 -0.206375,0.275166 -1.100667,1.169459 -2.063751,2.132543 -0.963084,0.894292 -1.719793,1.719793 -0.343958,0.481542 -0.687917,0.894292 -0.275167,0.343958 -0.550333,0.687917 -0.275167,0.550334 -0.412751,0.756709 -0.06879,0.206375 -0.06879,0.550333 0.06879,0.06879 0.41275,-0.06879 0.06879,0 0.06879,-0.06879 0.06879,-0.06879 0.206375,-0.06879 l 0.8255,-0.619125 q 0.619126,-0.343959 1.031876,-0.481542 0.41275,-0.206375 0.06879,0.206375 -0.275166,0.343959 -0.619125,0.756709 -0.275167,0.343958 -0.619125,0.8255 l -0.137584,0.137584 v 0.06879 l -0.06879,0.137584 q -0.137584,0.137583 -0.137584,0.275167 l 0.137584,0.137583 q 0.06879,0.137583 0.06879,0.137583 0,0.06879 0.06879,0.137584 l 0.343959,0.481542 q 0.137583,0.137583 0.343958,0.275166 0.550334,0.756709 1.169459,1.513418 0.619125,0.687917 1.169459,1.307042 l 1.513417,1.788585 0.137584,0.275166 q -0.137584,-0.550333 -0.481542,-0.894292 -0.343959,-0.343958 -0.756709,-0.687917 -0.137583,-0.137583 -0.206375,-0.275167 0,-0.206375 -0.137583,-0.343958 0.275167,0.275167 0.481542,0.550333 0.206375,0.275167 0.481542,0.550334 l 0.619125,0.687917 q 0.137583,0.275167 0.275167,0.343959 0.137583,-0.06879 0.137583,-0.06879 0,0.137583 -0.137583,0.137583 l -0.06879,-0.06879 -0.06879,0.06879 q 0,0.06879 -0.06879,0.137584 v 0.206375 q 0.06879,0 0.06879,0 0.06879,-0.06879 0.137584,-0.06879 v 0.06879 q 0.06879,0 0.275166,-0.206375 l 1.857376,-1.926168 q -0.06879,0 -0.06879,0 -0.06879,0 -0.06879,-0.06879 0.481542,-0.550333 0.963084,-1.031875 0.550333,-0.550334 1.100667,-1.100667 0.550334,-0.481542 1.031876,-0.894293 0.550333,-0.481541 1.100667,-0.894292 0.481542,-0.343958 0.894292,-0.550333 0.41275,-0.275167 0.8255,-0.412751 0.206376,-0.275166 0.825501,-0.756708 -0.41275,0.275167 -0.550334,0.41275 -0.06879,0 -0.137583,0 0,-0.06879 -0.137584,-0.06879 0.412751,-0.275167 0.756709,-0.481542 0.41275,-0.275166 0.825501,-0.550333 L 42.08646,40.65588 q 0.06879,-0.06879 0.137583,-0.06879 0.06879,-0.06879 0.137584,-0.137583 0,-0.06879 0,-0.06879 0.06879,0 0.06879,-0.06879 l -0.137583,-0.06879 q -0.06879,0 -0.137584,0 0,-0.06879 -0.06879,-0.06879 h -0.06879 q -0.137583,-0.137583 -0.275167,-0.137583 -0.06879,-0.06879 -0.206375,-0.206375 L 40.229084,38.867296 Q 40.0915,38.729712 39.953917,38.592129 39.885125,38.454546 39.747542,38.316962 39.472375,38.179379 39.266,38.041795 39.059625,37.904212 38.922041,37.83542 q -0.756708,-0.550333 -1.307042,-1.031875 -0.550334,-0.550334 -1.100667,-1.100668 -0.137584,-0.06879 -0.41275,-0.137583 -0.206376,-0.06879 -0.481542,-0.206375 -0.343959,0.343958 -0.687917,0.619125 -0.343959,0.206375 -0.687917,0.550334 0.06879,-0.137584 -0.137584,-0.137584 0.756709,-0.687917 1.513418,-1.031875 L 33.762664,34.120668 Q 33.21233,33.77671 32.79958,33.501543 q -0.41275,-0.275167 -0.963084,-0.619125 -0.137583,0.137583 -0.206375,0.206375 -0.06879,0 -0.206375,0.137583 0.275167,-0.275167 0.41275,-0.343958 -0.06879,-0.06879 -0.137583,-0.06879 -0.06879,-0.06879 -0.137584,-0.137583 l -0.343958,-0.206376 -0.756709,0.687917 q -1.857376,1.58221 -3.64596,3.302002 -1.719793,1.651001 -3.370794,3.439585 l -0.619125,0.756709 q -0.137583,0.275167 -0.343958,0.481542 -0.206376,0.206375 -0.343959,0.481542 -0.41275,0.550333 -0.550334,0.894292 -0.275166,0.550334 -0.275166,0.963084 0,0.343958 0.137583,0.619125 0.137583,0.206375 0.275167,0.481542 z M 20.210698,43.47634 q 0,0.550333 0.275167,1.23825 0.343959,0.687917 0.687917,1.169459 l 1.444626,1.926168 q 0.756709,0.963084 1.307042,2.132543 0.550334,1.100667 1.99496,2.201334 -1.307043,-1.651001 -2.682877,-3.508377 L 21.311366,45.815258 20.554657,44.30184 q -0.137584,-0.550333 -0.137584,-0.8255 0,-0.41275 0.137584,-0.756709 0.137583,-0.41275 0.343958,-0.8255 0.206376,-0.343959 0.481542,-0.687917 0.275167,-0.412751 0.619126,-0.756709 l 0.550333,-0.756709 1.238251,-1.307042 q 0.8255,-0.894292 1.651001,-1.719793 0.8255,-0.8255 1.719792,-1.582209 v 0.06879 q 0.894292,-0.825501 1.719793,-1.513418 0.894292,-0.756708 1.719792,-1.513417 l -0.06879,-0.06879 -3.370794,3.026835 q 0.137584,-0.343958 0.825501,-0.894292 0.756708,-0.619125 1.100667,-1.100667 -1.513417,1.169459 -2.82046,2.270126 -1.23825,1.100667 -2.545293,2.545293 0.206375,-0.206375 0.41275,-0.41275 0.206376,-0.275167 0.412751,-0.481542 l -0.756709,0.756709 q -0.206375,0.275166 -0.41275,0.481541 -0.206375,0.206376 -0.412751,0.481542 -0.206375,0.275167 -0.41275,0.481542 -0.206375,0.206375 -0.550333,0.756709 -0.343959,0.41275 -0.687917,0.8255 -0.343959,0.412751 -0.550334,0.894293 -0.550334,0.894292 -0.550334,1.788584 z M 42.155251,26.278414 q -1.375834,0.894292 -2.545293,1.719793 0.137584,-0.06879 0.206376,-0.137584 0.06879,-0.06879 0.206375,-0.137583 1.857376,-1.651001 4.127502,-2.958043 0.137583,-0.137584 0.206375,-0.137584 0.137583,-0.06879 0.275167,-0.137583 l 0.687917,-0.481542 q 0.275167,-0.06879 0.206375,-0.275167 -0.06879,-0.206375 -0.137584,-0.343958 -0.275166,-0.756709 -0.894292,-1.375834 -0.550333,-0.550334 -1.23825,-0.963084 -0.619126,-0.481542 -1.307043,-1.031876 0.756709,0.481542 1.444626,0.963084 0.756709,0.41275 1.307042,1.031876 0.343959,0.343958 0.550334,0.687917 0.206375,0.275167 0.343959,0.687917 0.137583,0.275167 0.137583,0.41275 v 0.137583 l -0.825501,0.619126 q -1.513417,0.894292 -2.751668,1.719792 z M 26.883493,43.682715 q -0.06879,-0.137583 -0.06879,-0.137583 0,-0.06879 0.137583,-0.206376 0.343959,-0.343958 0.481542,-0.550333 0.481542,-0.550334 0.825501,-1.031876 0.41275,-0.550333 0.619125,-0.963084 0.550333,-0.343958 1.513417,-1.031875 -0.687917,0.687917 -1.375834,1.307042 -0.619125,0.619126 -1.23825,1.375834 l -0.825501,0.894292 q 0,0.06879 -0.06879,0.137584 0,0 0,0.06879 0,0.06879 0.06879,0.137583 l 0.206375,0.343958 q -0.06879,-0.06879 -0.137583,-0.137583 0,-0.06879 -0.06879,-0.137583 z M 41.260959,26.003247 q 0.687917,-0.481541 1.307043,-0.894292 0.619125,-0.41275 1.375834,-0.8255 l 0.8255,-0.41275 q 0,-0.06879 0.06879,-0.06879 l -0.06879,-0.06879 q 0,-0.41275 -0.343958,-0.894292 -0.275167,-0.481542 -0.619126,-0.756709 -0.343958,-0.343958 -0.756708,-0.687917 0.619125,0.481542 1.100667,1.031876 0.550333,0.481542 0.687917,1.307042 l 0.06879,0.06879 q -0.06879,0.06879 -0.06879,0.06879 l -0.825501,0.481542 q -0.756708,0.41275 -1.444625,0.8255 -0.619126,0.41275 -1.307043,0.8255 z m 7.360712,-3.783543 q -0.343958,-0.756709 -0.756708,-1.513418 0.550333,0.894292 0.8255,1.857376 0.343959,0.894292 0.550334,1.857376 0.06879,0 0.06879,0.137584 0,-0.137584 -0.06879,-0.137584 0,-0.137583 -0.06879,-0.206375 -0.06879,-0.06879 -0.06879,-0.275167 -0.137583,-0.481542 -0.275166,-0.894292 -0.06879,-0.41275 -0.206376,-0.8255 z m -8.736546,9.630838 q 0.41275,-0.137583 0.619126,-0.275167 -0.343959,0.275167 -0.687917,0.481542 -0.275167,0.206375 -0.619126,0.481542 0.206375,-0.137583 0.343959,-0.343958 0.206375,-0.206375 0.343958,-0.343959 z M 30.804621,11.350615 q -0.343959,-0.275167 -0.619126,-0.481542 -0.206375,-0.275167 -0.481542,-0.550334 0.343959,0.275167 0.550334,0.550334 0.275167,0.206375 0.550334,0.481542 z m -0.275167,23.939512 h 0.06879 q 0.343959,-0.343958 0.687917,-0.619125 0.343959,-0.343959 0.687917,-0.687917 l 0.275167,-0.206375 -1.651001,1.513417 z M 27.15866,50.76826 26.952285,50.561885 27.15866,50.76826 q 0.206375,0.275167 0.412751,0.481542 0.206375,0.206375 0.41275,0.481542 z m 10.181172,-0.550333 q -0.206375,0.06879 -0.275167,0.275166 z m 2.40771,-15.684508 0.8255,0.550333 q -0.550333,-0.41275 -0.8255,-0.550333 z m -12.588882,-0.06879 -0.343958,0.343958 z m -0.137583,14.721424 v 0.06879 z"
           style="font-family:CROOKED;-inkscape-font-specification:CROOKED"
           id="path305" />
      </g>
    </g>
  </g>
</svg>
